<svg width="304" height="100" viewBox="0 0 304 100" fill="none" xmlns="http://www.w3.org/2000/svg">
<path id="Vector 1" d="M2.6344 94.9057C2.6344 91.4081 1.28915 83.2264 3.1173 79.9357C4.37491 77.672 4.1746 72.2327 6.0147 70.7606C10.9279 66.8301 10.2844 56.721 15.6727 52.4104C17.4703 50.9723 19.0863 48.2717 20.77 46.4009C23.2772 43.6152 26.1977 41.8317 28.9257 39.1038C31.5011 36.5283 34.6215 34.4811 37.1886 31.9139C39.767 29.3356 43.3396 28.4062 45.8809 26.1191C51.6169 20.9567 60.8628 21.7988 66.431 17.1586C69.2631 14.7985 75.5975 16.1218 78.8791 14.2075C82.3188 12.201 86.5191 12.3538 90.0395 10.398C97.1886 6.42623 106.312 6.67477 113.916 4.3349C118.42 2.94913 124.412 3.15447 129.154 3.15447C133.283 3.15447 137.369 2.18867 141.71 2.18867C159.85 2.18867 178.603 0.862852 196.224 4.06662C201.672 5.05713 207.599 5.27001 212.965 6.80306C215.409 7.5015 219.565 7.92346 222.086 7.98348C225.419 8.06283 228.163 9.79387 231.315 9.91509C241.466 10.3055 249.879 16.0067 257.821 21.5047C272.391 31.5921 278.488 47.4773 286.58 61.6391C287.791 63.7573 291.286 69.6257 291.409 71.7264C291.59 74.8011 294.939 76.7894 295.272 79.4528C295.641 82.401 297.68 85.3527 298.921 88.145C300.274 91.1899 300.497 94.7314 302.033 97.8031" stroke="black" stroke-width="3" stroke-linecap="round"/>
</svg>
